<?xml version="1.0" encoding="UTF-8"?>
<svg version="1.1" xmlns="http://www.w3.org/2000/svg" width="1024" height="1024">
<path d="M0 0 C337.92 0 675.84 0 1024 0 C1024 337.92 1024 675.84 1024 1024 C686.08 1024 348.16 1024 0 1024 C0 686.08 0 348.16 0 0 Z " fill="#4897FE" transform="translate(0,0)"/>
<path d="M0 0 C52.8 0 105.6 0 160 0 C164.79742892 10.28020482 169.58769419 20.5615461 174.3125 30.875 C174.65115082 31.61410614 174.98980164 32.35321228 175.3387146 33.11471558 C181.34091242 46.23127143 187.16496535 59.42158448 192.93832397 72.64016724 C198.73598654 85.90948406 204.63864967 99.12726254 210.625 112.3125 C216.59250519 125.45699839 222.52386821 138.61574376 228.375 151.8125 C228.87004532 152.92889359 228.87004532 152.92889359 229.37509155 154.06784058 C230.03134157 155.54783404 230.68758655 157.02782974 231.34382629 158.50782776 C231.66219955 159.22583054 231.98057281 159.94383331 232.30859375 160.68359375 C232.77968819 161.74615639 232.77968819 161.74615639 233.26029968 162.83018494 C237.60975255 172.63575283 242.00826429 182.41931717 246.40100098 192.20555115 C250.47819886 201.29103059 254.54091612 210.38299867 258.60626221 219.4737854 C262.66499001 228.54950496 266.72731036 237.62356381 270.79980469 246.69311523 C277.2523532 261.06555262 283.65347986 275.46052937 290.0473938 289.85913086 C295.92862003 303.10242885 301.82708697 316.33779472 307.75 329.5625 C319.55162886 355.91780529 331.25960001 382.31391372 342.92086792 408.7315979 C348.22342762 420.7419557 353.55421952 432.73853872 358.93823242 444.71264648 C363.99218492 455.9602847 368.99580644 467.23015162 374 478.5 C381.06826406 494.41635511 388.16457892 510.31942855 395.29833984 526.20654297 C398.33691354 532.97749539 401.36479066 539.75324285 404.39456177 546.52813721 C409.84166643 558.7083703 415.2913965 570.88741546 420.75 583.0625 C421.27295654 584.229021 421.79591309 585.39554199 422.3347168 586.59741211 C424.93124524 592.38854804 427.52919754 598.17904103 430.12890625 603.96875 C432.81512399 609.95234646 435.49692731 615.93790834 438.17578125 621.92480469 C439.49204171 624.8662105 440.81011533 627.80679821 442.12890625 630.74707031 C443.99445966 634.90718328 445.85590986 639.06911329 447.7149353 643.23214722 C448.44395906 644.86304016 449.17427624 646.49335558 449.90591431 648.12307739 C450.9264292 650.39692283 451.94227703 652.67279786 452.95703125 654.94921875 C453.26572144 655.63424469 453.57441162 656.31927063 453.89245605 657.02505493 C456 661.77189963 456 661.77189963 456 664 C443.78743314 664.39472996 431.5763932 664.69634725 419.35873604 664.88080692 C413.68444973 664.96936806 408.01453989 665.08933485 402.34277344 665.2824707 C396.86343767 665.46787558 391.3882941 665.5689542 385.90606308 665.61291313 C383.82034118 665.64421179 381.73483741 665.70534862 379.65091324 665.79741096 C363.76174516 666.47111697 363.76174516 666.47111697 359.16697311 662.359869 C355.96234165 658.31140427 353.84600577 653.87404568 351.90270996 649.11560059 C350.56012274 645.96909902 348.84441187 643.13182827 347.0859375 640.19921875 C345.84784914 638.02927832 344.61089012 635.85869319 343.375 633.6875 C342.69152757 632.48886311 342.00793032 631.29029738 341.32421875 630.09179688 C339.91456472 627.62055002 338.50542863 625.149009 337.09667969 622.67724609 C333.73612606 616.78197163 330.36765323 610.89122061 327 605 C325.66918254 602.67192546 324.33843627 600.34381025 323.0078125 598.015625 C322.67819519 597.43889542 322.34857788 596.86216583 322.00897217 596.26795959 C319.98681634 592.72906349 317.96698523 589.18885113 315.94885254 585.6476593 C308.00275821 571.70499526 299.99956388 557.7980287 291.890625 543.94921875 C291.14522461 542.67183838 291.14522461 542.67183838 290.38476562 541.36865234 C289.50320764 539.86074056 288.61698824 538.35553725 287.72460938 536.85400391 C285 532.21954356 285 532.21954356 285 530 C284.45545166 529.82694336 283.91090332 529.65388672 283.34985352 529.47558594 C278.57711684 527.92634734 273.9435095 526.19390235 269.31982422 524.24755859 C238.68813222 511.42104768 205.60157002 505.49555469 173 500 C171.86498047 499.80664062 170.72996094 499.61328125 169.56054688 499.4140625 C153.75938068 496.77894354 137.88856855 495.24701295 121.9375 493.875 C120.54540314 493.75412018 120.54540314 493.75412018 119.12518311 493.63079834 C113.20937434 493.12341509 107.29118846 492.66679388 101.3687439 492.24395752 C99.08211571 492.0783646 96.79600116 491.90555179 94.51040649 491.72625732 C65.82493286 489.51085518 37.12296629 489.75796099 8.36933798 489.85594499 C1.5489141 489.878775 -5.27151504 489.88941504 -12.09196794 489.89935279 C-26.06135426 489.91996371 -40.03067277 489.95487546 -54 490 C-67.96266357 525.14887244 -67.96266357 525.14887244 -81.69519043 560.38800049 C-83.62521233 565.39598405 -85.56237402 570.40120449 -87.5 575.40625 C-87.88283142 576.39517242 -88.26566284 577.38409485 -88.66009521 578.40298462 C-91.63302909 586.07331363 -94.64136408 593.72920979 -97.671875 601.37695312 C-105.91966148 622.20571466 -113.95579394 643.08506424 -122 664 C-165.56 664 -209.12 664 -254 664 C-252.00492015 657.34973383 -249.94293434 650.94409333 -247.4375 644.5 C-247.0942569 643.60787308 -246.75101379 642.71574615 -246.39736938 641.79658508 C-245.65625035 639.87139749 -244.91349428 637.94683944 -244.16925049 636.02285767 C-242.13415985 630.76154762 -240.11117745 625.49557655 -238.0859375 620.23046875 C-237.66492767 619.13703659 -237.24391785 618.04360443 -236.81015015 616.91703796 C-232.77219566 606.42450868 -228.78112213 595.91442198 -224.7961731 585.40167236 C-215.03427077 559.65296024 -205.15454028 533.95020124 -195.25390625 508.25457764 C-179.45586378 467.24995251 -163.6988757 426.2295345 -148.12109375 385.140625 C-139.97507977 363.65686637 -131.77534517 342.1967208 -123.44671631 320.78302002 C-117.06759728 304.37933571 -110.76550338 287.94739558 -104.5 271.5 C-97.8248931 253.97874462 -91.10486739 236.47614236 -84.3125 219 C-78.22960374 203.34890958 -72.18313932 187.68473184 -66.1875 172 C-59.57220414 154.69648936 -52.92347553 137.40615812 -46.25 120.125 C-45.7924231 118.94001923 -45.33484619 117.75503845 -44.86340332 116.53414917 C-42.0538049 109.25862189 -39.24338331 101.9834128 -36.43267822 94.70831299 C-32.56364921 84.69380288 -28.6953573 74.67900853 -24.82824707 64.66375732 C-23.50152679 61.22829359 -22.17413206 57.79309106 -20.84667969 54.35791016 C-13.85590729 36.25425737 -6.93092614 18.1270376 0 0 Z " fill="#000000" transform="translate(414,180)"/>
<path d="M0 0 C2.89081481 3.46627904 5.28456467 6.97973965 7.546875 10.8828125 C7.87484573 11.4456897 8.20281647 12.00856689 8.54072571 12.58850098 C9.24595361 13.79978328 9.94937781 15.01211721 10.65115356 16.22540283 C12.15676129 18.82817613 13.67135334 21.42568191 15.18544006 24.02352905 C15.96886745 25.36785811 16.75185324 26.71244461 17.53440857 28.05728149 C21.34308846 34.60012281 25.19754784 41.1152278 29.0625 47.625 C29.71549072 48.72561768 30.36848145 49.82623535 31.04125977 50.96020508 C32.36158564 53.1853583 33.6821419 55.41037483 35.00292969 57.63525391 C38.40040095 63.35945305 41.79396769 69.08596508 45.1875 74.8125 C45.85313965 75.93567627 46.5187793 77.05885254 47.20458984 78.21606445 C52.43373342 87.04096854 57.65496963 95.8705203 62.87109375 104.703125 C64.94482638 108.21460258 67.02041047 111.72497456 69.09765625 115.234375 C70.14851514 117.01037073 71.19929544 118.78641296 72.25 120.5625 C73.04361938 121.90380981 73.04361938 121.90380981 73.85327148 123.2722168 C76.91663714 128.45564041 79.96555988 133.64725108 83 138.84765625 C84.41625559 141.27367776 85.83291689 143.69946176 87.25 146.125 C87.60569061 146.7338504 87.96138123 147.34270081 88.32785034 147.97000122 C94.0779729 157.80393195 99.9578119 167.55306943 105.89630127 177.2741394 C110.92182248 185.50642313 115.80207334 193.80588557 120.54638672 202.20336914 C124.40459084 209.01269876 128.40022899 215.73298442 132.4375 222.4375 C133.06156738 223.47551758 133.68563477 224.51353516 134.32861328 225.58300781 C136.86400789 229.79794547 139.40132274 234.01165027 141.94970703 238.21875 C143.80698003 241.28741063 145.6543121 244.36186175 147.5 247.4375 C148.07032959 248.37327881 148.64065918 249.30905762 149.22827148 250.27319336 C149.99699585 251.55915405 149.99699585 251.55915405 150.78125 252.87109375 C151.23564453 253.62318115 151.69003906 254.37526855 152.15820312 255.15014648 C152.43599609 255.76059814 152.71378906 256.3710498 153 257 C152.67 257.66 152.34 258.32 152 259 C151.15332764 258.78384033 150.30665527 258.56768066 149.43432617 258.3449707 C127.42993216 252.79039186 105.5623934 248.49981237 83 246 C82.26956482 245.9175 81.53912964 245.835 80.78656006 245.75 C56.99174119 243.09669903 33.17110793 242.71815819 9.25371552 242.69037247 C7.04798088 242.68756115 4.84226447 242.68204461 2.63653564 242.67636108 C-31.17571273 242.61320739 -65.74529113 243.47979333 -99 250 C-97.00041415 243.80634633 -94.79107703 237.7291222 -92.40234375 231.67578125 C-92.05636642 230.79349854 -91.7103891 229.91121582 -91.35392761 229.00219727 C-90.2172195 226.1048017 -89.07734397 223.20866317 -87.9375 220.3125 C-87.12915385 218.25359383 -86.3210529 216.19459137 -85.51318359 214.13549805 C-83.83736236 209.86470314 -82.16049198 205.59432238 -80.48291016 201.32421875 C-77.05487018 192.59593871 -73.64096701 183.86213811 -70.22634888 175.12860107 C-67.97181496 169.36385611 -65.7144484 163.60021956 -63.4577179 157.83633423 C-61.14024432 151.91620485 -58.82615766 145.99476369 -56.51423645 140.07246399 C-46.90405488 115.45954211 -37.19961159 90.8850659 -27.39968872 66.34714127 C-26.58198194 64.29880188 -25.76521648 62.25008969 -24.94873047 60.20126343 C-19.01154057 45.30724447 -12.98237362 30.45656686 -6.77734375 15.671875 C-6.4917264 14.99128273 -6.20610905 14.31069046 -5.91183662 13.60947418 C-1.21836307 2.43672614 -1.21836307 2.43672614 0 0 Z " fill="#4897FE" transform="translate(490,341)"/>
<path d="M0 0 C7.92 0 15.84 0 24 0 C22.03706234 1.96293766 20.72905545 2.68347281 18.25 3.8125 C10.4179953 7.71436516 7.20162544 11.81720108 3.296875 19.57421875 C2 22 2 22 0 24 C0 16.08 0 8.16 0 0 Z " fill="#FBFCFE" transform="translate(0,0)"/>
<path d="M0 0 C8.25 0 16.5 0 25 0 C25 7.59 25 15.18 25 23 C23 21 23 21 21.4375 17.375 C17.38523621 9.1508484 10.30788276 4.57295099 1.87109375 1.59375 C0.94490234 1.29984375 0.94490234 1.29984375 0 1 C0 0.67 0 0.34 0 0 Z " fill="#FAFBFE" transform="translate(999,0)"/>
<path d="M0 0 C1.62121954 2.43182931 2.96115204 4.79555405 4.3125 7.375 C8.20532414 14.36850383 13.27614985 17.99100985 20 22 C20.99 22.66 21.98 23.32 23 24 C15.41 24 7.82 24 0 24 C0 16.08 0 8.16 0 0 Z " fill="#FBFCFE" transform="translate(0,1000)"/>
<path d="M0 0 C0.33 0 0.66 0 1 0 C1 7.92 1 15.84 1 24 C-6.59 24 -14.18 24 -22 24 C-19 22 -19 22 -16.73046875 20.7734375 C-7.54761801 15.72357488 -3.17964237 9.89222072 0 0 Z " fill="#FAFBFE" transform="translate(1023,1000)"/>
<path d="M0 0 C3.34726719 1.11575573 3.62079748 1.51344622 5.25 4.4375 C5.8275 5.613125 6.405 6.78875 7 8 C6.67 8.66 6.34 9.32 6 10 C4.99421411 8.71283353 3.99553202 7.42011342 3 6.125 C2.443125 5.40570312 1.88625 4.68640625 1.3125 3.9453125 C0 2 0 2 0 0 Z " fill="#4FA4F2" transform="translate(624,570)"/>
</svg>
